<?xml version="1.0" encoding="UTF-8"?><svg id="Layer_1" xmlns="http://www.w3.org/2000/svg" width="300" height="300" viewBox="0 0 300 300"><defs><style>.cls-1{fill:#ee5431;}.cls-2{fill:#ee5231;}</style></defs><circle class="cls-2" cx="191.05" cy="194.02" r="15.82"/><path class="cls-1" d="M208.13,96.93c-12.7-15.5-30.68-24.72-50.42-25.85-26.12-1.5-50.71,11.8-64.33,34.11-6.43,10.54-10.82,22.74-10.85,35.41l-.25,144.12c-7.13,3.13-15.03,3.9-22.71,3.91l-15.51.03c-9.03-1.03-16.94-8.63-16.95-18.35l-.13-123.23.65-20.03c2.11-24.44,10.83-47.83,25.59-67.16C84.06,19.51,135.94,1.18,185.19,13.99c27.96,7.27,52.33,23.74,69.71,46.98,16.33,21.83,24.84,48.19,25.33,75.45v29.96s-.02,21.74-.02,21.74l-.05,21.47-.19,61.5c-.03,8.54-6.81,15.71-14.91,17.2-5.77,1.06-11.17.53-16.95.4-7.78-.17-15.84-.79-23.08-4.03l-.34-145.08c-.04-15.72-6.7-30.62-16.56-42.65Z"/></svg>